<svg xmlns="http://www.w3.org/2000/svg" version="1.1" xmlns:xlink="http://www.w3.org/1999/xlink" xmlns:svgjs="http://svgjs.dev/svgjs" width="2000" height="368" viewBox="0 0 2000 368"><g transform="matrix(1,0,0,1,-1.2121212121212466,-1.1180677685303237)"><svg viewBox="0 0 396 73" data-background-color="#efefef" preserveAspectRatio="xMidYMid meet" height="368" width="2000" xmlns="http://www.w3.org/2000/svg" xmlns:xlink="http://www.w3.org/1999/xlink"><g id="tight-bounds" transform="matrix(1,0,0,1,0.2400000000000091,0.22179061712694192)"><svg viewBox="0 0 395.52 72.55641876574609" height="72.55641876574609" width="395.52"><g><svg viewBox="0 0 507.61406559314787 93.11958615129284" height="72.55641876574609" width="395.52"><g transform="matrix(1,0,0,1,112.0940655931479,5.969245871797952)"><svg viewBox="0 0 395.52 81.18109440769693" height="81.18109440769693" width="395.52"><g id="textblocktransform"><svg viewBox="0 0 395.52 81.18109440769693" height="81.18109440769693" width="395.52" id="textblock"><g><svg viewBox="0 0 395.52 81.18109440769693" height="81.18109440769693" width="395.52"><g transform="matrix(1,0,0,1,0,0)"><svg width="395.52" viewBox="2.15 -37.65 249.43 51.2" height="81.18109440769693" data-palette-color="url(#93e7ba7f-9cb1-41e7-8147-04d8794e8ba3)"></svg></g></svg></g></svg></g></svg></g><g><svg viewBox="0 0 92.92915754975644 93.11958615129284" height="93.11958615129284" width="92.92915754975644"><g><svg xmlns="http://www.w3.org/2000/svg" xmlns:xlink="http://www.w3.org/1999/xlink" version="1.1" x="0" y="0" viewBox="1.2 1.1 97.6 97.8" style="enable-background:new 0 0 100 100;" xml:space="preserve" height="93.11958615129284" width="92.92915754975644" class="icon-icon-0" data-fill-palette-color="accent" id="icon-0"><path d="M87.2 88.3c5.4-5.8 8.6-13.6 8.6-22.2 0-8.9-3.6-17-9.4-22.9-2.5 20.9-20.5 37.1-42.3 37l-10.5 0c5.3 11.1 16.5 18.7 29.6 18.7l35.6-0.1L87.2 88.3z" fill="#ff7200" data-fill-palette-color="accent"></path><path d="M71.4 12C64.4 5.1 55.2 1.2 45.3 1.1c-20.4 0-37 16.5-37 36.9 0 8.3 2.8 16.4 7.8 22.8l0.3 0.4L1.2 74.8 45.3 75c20.3 0 36.9-16.5 36.9-36.9C82.2 28.2 78.3 19 71.4 12zM45.3 70.3l-31.5-0.1 9.5-8.6-1.7-1.8c-5.4-6-8.4-13.7-8.4-21.9 0-17.6 14.4-32 32.1-32 8.7 0 16.8 3.4 22.8 9.5 6 6.1 9.3 14.2 9.3 22.8C77.4 55.9 63 70.3 45.3 70.3z" fill="#ff7200" data-fill-palette-color="accent"></path><path d="M52.1 44.1c-1.4 0-2.7 0.5-3.8 1.4l-8.5-5.6c0.3-0.7 0.5-1.6 0.5-2.4 0-0.8-0.2-1.6-0.5-2.3l8.6-6.2c1 0.8 2.3 1.3 3.6 1.3 3.3 0 5.9-2.6 5.9-5.9 0-3.3-2.6-5.9-5.9-5.9s-5.9 2.6-5.9 5.9c0 0.7 0.1 1.3 0.3 2l-8.8 6.3c-1-0.7-2.1-1.1-3.4-1.1-3.3 0-5.9 2.6-5.9 5.9 0 3.3 2.6 5.9 5.9 5.9 1.2 0 2.3-0.3 3.2-0.9l8.9 5.8c-0.2 0.6-0.3 1.2-0.3 1.8 0 3.3 2.6 5.9 5.9 5.9S58 53.3 58 50 55.3 44.1 52.1 44.1z" fill="#ff7200" data-fill-palette-color="accent"></path></svg></g></svg></g></svg></g><defs></defs><mask id="c13e2cf4-d8d3-4fe0-8f13-73a4f6cd1169"><g id="SvgjsG3468"><svg viewBox="0 0 395.52 72.55641876574609" height="72.55641876574609" width="395.52"><g><svg viewBox="0 0 507.61406559314787 93.11958615129284" height="72.55641876574609" width="395.52"><g transform="matrix(1,0,0,1,112.0940655931479,5.969245871797952)"><svg viewBox="0 0 395.52 81.18109440769693" height="81.18109440769693" width="395.52"><g id="SvgjsG3467"><svg viewBox="0 0 395.52 81.18109440769693" height="81.18109440769693" width="395.52" id="SvgjsSvg3466"><g><svg viewBox="0 0 395.52 81.18109440769693" height="81.18109440769693" width="395.52"><g transform="matrix(1,0,0,1,0,0)"><svg width="395.52" viewBox="2.15 -37.65 249.43 51.2" height="81.18109440769693" data-palette-color="url(#93e7ba7f-9cb1-41e7-8147-04d8794e8ba3)"><path d="M26-23.8L22.7-23.8Q22.25-26.6 21.1-28.48 19.95-30.35 18.18-31.3 16.4-32.25 14.05-32.2L14.05-32.2Q11.9-32.2 10.28-31 8.65-29.8 8.65-27.9L8.65-27.9Q8.65-26.35 9.53-25.2 10.4-24.05 12.2-23.05 14-22.05 16.75-20.9L16.75-20.9Q18.65-20.15 20.65-19.15 22.65-18.15 24.35-16.78 26.05-15.4 27.1-13.58 28.15-11.75 28.15-9.3L28.15-9.3Q28.15-6.35 26.55-4.05 24.95-1.75 22.08-0.48 19.2 0.8 15.35 0.8L15.35 0.8Q13.35 0.8 11.03 0.18 8.7-0.45 6.65-1.65L6.65-1.65 6.8 0.45 2.95 0.45 2.95-11.25 6.25-11.25Q6.95-7.05 9.47-4.93 12-2.8 15.5-2.8L15.5-2.8Q17.3-2.8 18.65-3.45 20-4.1 20.75-5.18 21.5-6.25 21.5-7.5L21.5-7.5Q21.5-9.25 20.28-10.4 19.05-11.55 17.23-12.35 15.4-13.15 13.5-13.9L13.5-13.9Q11.1-14.9 9.03-16.03 6.95-17.15 5.4-18.6 3.85-20.05 3-21.93 2.15-23.8 2.15-26.25L2.15-26.25Q2.15-27.8 2.75-29.48 3.35-31.15 4.7-32.58 6.05-34 8.3-34.9 10.55-35.8 13.85-35.8L13.85-35.8Q15.85-35.8 18.23-35.2 20.6-34.6 22.3-33.4L22.3-33.4 22.1-35.45 26-35.45 26-23.8ZM44.2 0.8L44.2 0.8Q40.6 0.8 37.7-0.75 34.8-2.3 33.12-5.18 31.45-8.05 31.45-11.95L31.45-11.95Q31.45-16.1 33.17-19.23 34.9-22.35 37.77-24.08 40.65-25.8 44.05-25.8L44.05-25.8Q47.65-25.8 50.5-24.25 53.35-22.7 55-19.83 56.65-16.95 56.65-12.95L56.65-12.95Q56.65-8.75 55.05-5.65 53.45-2.55 50.65-0.88 47.85 0.8 44.2 0.8ZM44.4-2.75L44.4-2.75Q46.4-2.8 47.42-4.15 48.45-5.5 48.85-7.55 49.25-9.6 49.25-11.7L49.25-11.7Q49.25-13.55 48.97-15.45 48.7-17.35 48.1-18.9 47.5-20.45 46.47-21.4 45.45-22.35 43.95-22.3L43.95-22.3Q42-22.25 40.87-20.9 39.75-19.55 39.27-17.53 38.8-15.5 38.8-13.3L38.8-13.3Q38.8-10.75 39.35-8.3 39.9-5.85 41.12-4.28 42.35-2.7 44.4-2.75ZM72.05 0.8L72.05 0.8Q68.7 0.8 65.9-0.7 63.1-2.2 61.42-5.05 59.75-7.9 59.75-11.95L59.75-11.95Q59.75-14.8 60.7-17.3 61.65-19.8 63.37-21.7 65.1-23.6 67.47-24.7 69.85-25.8 72.75-25.8L72.75-25.8Q75.95-25.8 78.07-24.83 80.2-23.85 81.27-22.28 82.35-20.7 82.35-18.95L82.35-18.95Q82.35-17.5 81.47-16.38 80.6-15.25 79-15.2L79-15.2Q77.1-15.15 76.35-16.28 75.6-17.4 75.6-18.45L75.6-18.45Q75.6-18.9 75.75-19.53 75.9-20.15 76.2-20.65L76.2-20.65Q75.85-21.4 75.15-21.75 74.45-22.1 73.72-22.23 73-22.35 72.55-22.3L72.55-22.3Q70.15-22.15 68.6-19.9 67.05-17.65 67.05-13.4L67.05-13.4Q67.05-10.9 67.67-8.72 68.3-6.55 69.75-5.15 71.2-3.75 73.65-3.65L73.65-3.65Q75.75-3.6 77.75-4.65 79.75-5.7 81.15-7.5L81.15-7.5 83.45-5.25Q81.65-2.75 79.7-1.45 77.75-0.15 75.82 0.33 73.9 0.8 72.05 0.8ZM86.14 0L86.14-3.25Q87.54-3.25 88.14-3.8 88.74-4.35 88.92-5.38 89.09-6.4 89.09-7.7L89.09-7.7 89.09-16Q89.09-16.9 89.14-18.07 89.19-19.25 89.29-20.35L89.29-20.35Q88.49-20.3 87.42-20.28 86.34-20.25 85.79-20.2L85.79-20.2 85.79-24Q88.09-24 89.69-24.25 91.29-24.5 92.22-24.85 93.14-25.2 93.49-25.5L93.49-25.5 96.19-25.5 96.19-8.05Q96.19-7.35 96.14-6.08 96.09-4.8 95.99-3.65L95.99-3.65Q96.79-3.75 97.77-3.78 98.74-3.8 99.24-3.8L99.24-3.8 99.24 0 86.14 0ZM92.39-29.45L92.39-29.45Q90.69-29.45 89.59-30.65 88.49-31.85 88.49-33.55L88.49-33.55Q88.49-35.25 89.64-36.45 90.79-37.65 92.34-37.65L92.34-37.65Q93.94-37.65 95.02-36.45 96.09-35.25 96.09-33.55L96.09-33.55Q96.09-31.85 95.09-30.65 94.09-29.45 92.39-29.45ZM114.74 0.8L114.74 0.8Q111.14 0.8 108.24-0.75 105.34-2.3 103.67-5.18 101.99-8.05 101.99-11.95L101.99-11.95Q101.99-16.1 103.72-19.23 105.44-22.35 108.32-24.08 111.19-25.8 114.59-25.8L114.59-25.8Q118.19-25.8 121.04-24.25 123.89-22.7 125.54-19.83 127.19-16.95 127.19-12.95L127.19-12.95Q127.19-8.75 125.59-5.65 123.99-2.55 121.19-0.88 118.39 0.8 114.74 0.8ZM114.94-2.75L114.94-2.75Q116.94-2.8 117.97-4.15 118.99-5.5 119.39-7.55 119.79-9.6 119.79-11.7L119.79-11.7Q119.79-13.55 119.52-15.45 119.24-17.35 118.64-18.9 118.04-20.45 117.02-21.4 115.99-22.35 114.49-22.3L114.49-22.3Q112.54-22.25 111.42-20.9 110.29-19.55 109.82-17.53 109.34-15.5 109.34-13.3L109.34-13.3Q109.34-10.75 109.89-8.3 110.44-5.85 111.67-4.28 112.89-2.7 114.94-2.75ZM141.54 13.55L141.54 13.55Q137.24 13.55 134.74 12.63 132.24 11.7 131.19 10.2 130.14 8.7 130.14 7L130.14 7Q130.14 5.95 130.59 4.9 131.04 3.85 132.06 2.88 133.09 1.9 134.89 1.25L134.89 1.25Q132.84 0.7 132.01-0.53 131.19-1.75 131.19-3.15L131.19-3.15Q131.19-4.45 132.24-6.08 133.29-7.7 136.04-8.55L136.04-8.55Q133.94-9.4 132.59-11.2 131.24-13 131.14-15.55L131.14-15.55Q131.04-18.55 132.64-20.88 134.24-23.2 136.84-24.5 139.44-25.8 142.29-25.8L142.29-25.8Q143.59-25.8 145.29-25.45 146.99-25.1 148.24-24.25L148.24-24.25Q148.79-25.8 149.66-27.18 150.54-28.55 151.79-29.43 153.04-30.3 154.59-30.3L154.59-30.3Q156.29-30.3 157.16-29.43 158.04-28.55 158.04-27.1L158.04-27.1Q158.04-26.5 157.76-25.78 157.49-25.05 156.81-24.55 156.14-24.05 154.94-24.05L154.94-24.05Q154.19-24.05 153.44-24.63 152.69-25.2 152.54-26L152.54-26Q151.89-25.8 151.24-24.7 150.59-23.6 150.49-22.75L150.49-22.75Q151.94-21.5 152.69-19.85 153.44-18.2 153.44-16.3L153.44-16.3Q153.44-13.4 151.81-11.18 150.19-8.95 147.61-7.68 145.04-6.4 142.09-6.4L142.09-6.4Q141.44-6.4 140.64-6.48 139.84-6.55 139.09-6.55L139.09-6.55Q137.99-6.55 137.24-6.15 136.49-5.75 136.49-5.05L136.49-5.05Q136.49-4.1 137.94-3.75 139.39-3.4 142.89-3.2L142.89-3.2Q146.74-3 149.61-2.23 152.49-1.45 154.09 0.2 155.69 1.85 155.69 4.75L155.69 4.75Q155.69 6.9 154.44 8.53 153.19 10.15 151.11 11.28 149.04 12.4 146.54 12.98 144.04 13.55 141.54 13.55ZM142.99 10.1L142.99 10.1Q146.54 10.1 148.36 8.8 150.19 7.5 150.19 6.1L150.19 6.1Q150.19 5.05 149.39 4.38 148.59 3.7 147.01 3.3 145.44 2.9 142.99 2.8L142.99 2.8Q141.89 2.7 140.44 2.65 138.99 2.6 137.89 2.4L137.89 2.4Q137.14 3 136.74 3.9 136.34 4.8 136.29 5.65L136.29 5.65Q136.19 7.65 138.01 8.88 139.84 10.1 142.99 10.1ZM142.29-9.75L142.29-9.75Q143.64-9.75 144.56-10.6 145.49-11.45 145.96-12.75 146.44-14.05 146.44-15.4L146.44-15.4Q146.44-17.15 145.99-18.78 145.54-20.4 144.61-21.43 143.69-22.45 142.24-22.45L142.24-22.45Q140.24-22.45 139.14-20.65 138.04-18.85 138.04-16.55L138.04-16.55Q138.04-14.8 138.54-13.23 139.04-11.65 139.99-10.7 140.94-9.75 142.29-9.75ZM158.64 0L158.64-3.25Q160.04-3.25 160.64-3.8 161.24-4.35 161.41-5.38 161.59-6.4 161.59-7.7L161.59-7.7 161.59-16.1Q161.59-17 161.64-18.13 161.69-19.25 161.79-20.35L161.79-20.35Q160.99-20.3 159.91-20.28 158.84-20.25 158.29-20.2L158.29-20.2 158.29-24 160.29-24Q162.24-24 163.86-24.5 165.49-25 165.99-25.5L165.99-25.5 168.44-25.5Q168.54-25 168.59-23.63 168.64-22.25 168.64-21.2L168.64-21.2Q169.99-22.85 171.19-23.85 172.39-24.85 173.56-25.33 174.74-25.8 175.94-25.8L175.94-25.8Q177.69-25.8 178.99-24.83 180.29-23.85 180.29-21.65L180.29-21.65Q180.29-20.9 179.94-20.08 179.59-19.25 178.84-18.7 178.09-18.15 176.79-18.15L176.79-18.15Q175.79-18.15 174.74-18.75 173.69-19.35 173.54-21.05L173.54-21.05Q172.54-21.05 171.54-20.23 170.54-19.4 169.76-18.28 168.99-17.15 168.69-16.2L168.69-16.2 168.69-8.05Q168.69-7.35 168.64-6.08 168.59-4.8 168.49-3.65L168.49-3.65Q169.29-3.75 170.26-3.78 171.24-3.8 171.74-3.8L171.74-3.8 171.74 0 158.64 0ZM205.73 0L196.28 0Q196.18-0.7 196.16-1.18 196.13-1.65 196.08-2.3L196.08-2.3Q194.38-0.6 192.48 0.1 190.58 0.8 188.63 0.8L188.63 0.8Q185.43 0.8 183.63-1.1 181.83-3 181.83-5.85L181.83-5.85Q181.83-8.25 183.06-9.95 184.28-11.65 186.31-12.73 188.33-13.8 190.81-14.38 193.28-14.95 195.78-15.05L195.78-15.05 195.78-17.65Q195.78-18.95 195.46-20 195.13-21.05 194.36-21.65 193.58-22.25 192.18-22.2L192.18-22.2Q191.23-22.15 190.33-21.8 189.43-21.45 188.78-20.8L188.78-20.8Q189.18-20.35 189.28-19.83 189.38-19.3 189.38-18.9L189.38-18.9Q189.38-17.9 188.58-16.82 187.78-15.75 186.03-15.8L186.03-15.8Q184.53-15.85 183.73-16.85 182.93-17.85 182.93-19.2L182.93-19.2Q182.93-21.2 184.36-22.68 185.78-24.15 188.18-24.98 190.58-25.8 193.48-25.8L193.48-25.8Q197.88-25.8 200.31-23.53 202.73-21.25 202.73-16.25L202.73-16.25Q202.73-14.55 202.73-13.35 202.73-12.15 202.71-10.95 202.68-9.75 202.68-8.05L202.68-8.05Q202.68-7.35 202.63-6.08 202.58-4.8 202.48-3.65L202.48-3.65Q203.33-3.75 204.28-3.78 205.23-3.8 205.73-3.8L205.73-3.8 205.73 0ZM195.73-11.5L195.73-11.5Q194.33-11.35 193.08-11 191.83-10.65 190.91-10.05 189.98-9.45 189.46-8.6 188.93-7.75 188.93-6.7L188.93-6.7Q188.98-5.3 189.83-4.7 190.68-4.1 191.78-4.1L191.78-4.1Q192.93-4.1 193.93-4.6 194.93-5.1 195.73-5.9L195.73-5.9Q195.73-6.4 195.73-6.88 195.73-7.35 195.73-7.85L195.73-7.85Q195.73-8.75 195.73-9.68 195.73-10.6 195.73-11.5ZM221.43 0L208.58 0 208.58-3.25Q209.98-3.25 210.58-3.8 211.18-4.35 211.36-5.38 211.53-6.4 211.53-7.7L211.53-7.7 211.53-16.1Q211.53-17 211.58-18.13 211.63-19.25 211.73-20.35L211.73-20.35Q210.93-20.3 209.86-20.28 208.78-20.25 208.23-20.2L208.23-20.2 208.23-24Q210.53-24 212.13-24.25 213.73-24.5 214.66-24.85 215.58-25.2 215.93-25.5L215.93-25.5 218.38-25.5Q218.48-25 218.51-24.25 218.53-23.5 218.58-23L218.58-23Q220.28-24.3 222.26-25.05 224.23-25.8 225.98-25.8L225.98-25.8Q228.28-25.8 229.78-24.98 231.28-24.15 232.18-22.5L232.18-22.5Q233.98-24 236.16-24.9 238.33-25.8 240.33-25.8L240.33-25.8Q244.38-25.8 246.46-23.48 248.53-21.15 248.53-15.4L248.53-15.4 248.53-8.05Q248.53-7.35 248.48-6.08 248.43-4.8 248.33-3.65L248.33-3.65Q249.13-3.75 250.11-3.78 251.08-3.8 251.58-3.8L251.58-3.8 251.58 0 238.93 0 238.93-3.25Q240.08-3.25 240.61-3.8 241.13-4.35 241.28-5.38 241.43-6.4 241.43-7.7L241.43-7.7 241.43-15.35Q241.38-18.6 240.36-19.85 239.33-21.1 237.63-21.15L237.63-21.15Q236.33-21.2 235.21-20.7 234.08-20.2 233.18-19.5L233.18-19.5Q233.43-18.5 233.53-17.3 233.63-16.1 233.63-14.75L233.63-14.75Q233.63-13.05 233.63-11.4 233.63-9.75 233.63-8.05L233.63-8.05Q233.63-7.35 233.58-6.08 233.53-4.8 233.43-3.65L233.43-3.65Q234.23-3.75 235.18-3.78 236.13-3.8 236.68-3.8L236.68-3.8 236.68 0 223.78 0 223.78-3.25Q225.08-3.25 225.66-3.8 226.23-4.35 226.38-5.38 226.53-6.4 226.53-7.7L226.53-7.7 226.48-15.5Q226.48-18.75 225.53-19.95 224.58-21.15 222.88-21.2L222.88-21.2Q221.63-21.2 220.56-20.65 219.48-20.1 218.63-19.35L218.63-19.35Q218.63-18.7 218.63-18.1 218.63-17.5 218.63-16.85L218.63-16.85 218.63-8.05Q218.63-7.35 218.58-6.08 218.53-4.8 218.43-3.65L218.43-3.65Q219.23-3.75 220.08-3.78 220.93-3.8 221.43-3.8L221.43-3.8 221.43 0Z" opacity="1" transform="matrix(1,0,0,1,0,0)" fill="white" class="wordmark-text-0" id="SvgjsPath3465"></path></svg></g></svg></g></svg></g></svg></g><g><svg viewBox="0 0 92.92915754975644 93.11958615129284" height="93.11958615129284" width="92.92915754975644"><g><svg xmlns="http://www.w3.org/2000/svg" xmlns:xlink="http://www.w3.org/1999/xlink" version="1.1" x="0" y="0" viewBox="1.2 1.1 97.6 97.8" style="enable-background:new 0 0 100 100;" xml:space="preserve" height="93.11958615129284" width="92.92915754975644" class="icon-icon-0" data-fill-palette-color="accent" id="SvgjsSvg3464"><path d="M87.2 88.3c5.4-5.8 8.6-13.6 8.6-22.2 0-8.9-3.6-17-9.4-22.9-2.5 20.9-20.5 37.1-42.3 37l-10.5 0c5.3 11.1 16.5 18.7 29.6 18.7l35.6-0.1L87.2 88.3z" fill="black"></path><path d="M71.4 12C64.4 5.1 55.2 1.2 45.3 1.1c-20.4 0-37 16.5-37 36.9 0 8.3 2.8 16.4 7.8 22.8l0.3 0.4L1.2 74.8 45.3 75c20.3 0 36.9-16.5 36.9-36.9C82.2 28.2 78.3 19 71.4 12zM45.3 70.3l-31.5-0.1 9.5-8.6-1.7-1.8c-5.4-6-8.4-13.7-8.4-21.9 0-17.6 14.4-32 32.1-32 8.7 0 16.8 3.4 22.8 9.5 6 6.1 9.3 14.2 9.3 22.8C77.4 55.9 63 70.3 45.3 70.3z" fill="black"></path><path d="M52.1 44.1c-1.4 0-2.7 0.5-3.8 1.4l-8.5-5.6c0.3-0.7 0.5-1.6 0.5-2.4 0-0.8-0.2-1.6-0.5-2.3l8.6-6.2c1 0.8 2.3 1.3 3.6 1.3 3.3 0 5.9-2.6 5.9-5.9 0-3.3-2.6-5.9-5.9-5.9s-5.9 2.6-5.9 5.9c0 0.7 0.1 1.3 0.3 2l-8.8 6.3c-1-0.7-2.1-1.1-3.4-1.1-3.3 0-5.9 2.6-5.9 5.9 0 3.3 2.6 5.9 5.9 5.9 1.2 0 2.3-0.3 3.2-0.9l8.9 5.8c-0.2 0.6-0.3 1.2-0.3 1.8 0 3.3 2.6 5.9 5.9 5.9S58 53.3 58 50 55.3 44.1 52.1 44.1z" fill="black"></path></svg></g></svg></g></svg></g><defs><mask></mask></defs></svg><rect width="395.52" height="72.55641876574609" fill="black" stroke="none" visibility="hidden"></rect></g></mask><linearGradient x1="0" x2="1" y1="0.578" y2="0.595" id="93e7ba7f-9cb1-41e7-8147-04d8794e8ba3"><stop stop-color="#6ee2f5" offset="0"></stop><stop stop-color="#6454f0" offset="1"></stop></linearGradient><rect width="395.52" height="72.55641876574609" fill="url(#93e7ba7f-9cb1-41e7-8147-04d8794e8ba3)" mask="url(#c13e2cf4-d8d3-4fe0-8f13-73a4f6cd1169)" data-fill-palette-color="primary"></rect></svg><rect width="395.52" height="72.55641876574609" fill="none" stroke="none" visibility="hidden"></rect></g></svg></g></svg>